<?xml version="1.0" encoding="UTF-8" ?>
<svg version="1.1" width="26" height="60" xmlns="http://www.w3.org/2000/svg" shape-rendering="crispEdges">
<rect x="9" y="38" width="1" height="1" fill="#8F563B" />
<rect x="10" y="38" width="1" height="1" fill="#8F563B" />
<rect x="11" y="38" width="1" height="1" fill="#8F563B" />
<rect x="12" y="38" width="1" height="1" fill="#8F563B" />
<rect x="13" y="38" width="1" height="1" fill="#8F563B" />
<rect x="14" y="38" width="1" height="1" fill="#8F563B" />
<rect x="15" y="38" width="1" height="1" fill="#8F563B" />
<rect x="16" y="38" width="1" height="1" fill="#8F563B" />
<rect x="9" y="39" width="1" height="1" fill="#8F563B" />
<rect x="10" y="39" width="1" height="1" fill="#8F563B" />
<rect x="11" y="39" width="1" height="1" fill="#8F563B" />
<rect x="12" y="39" width="1" height="1" fill="#8F563B" />
<rect x="13" y="39" width="1" height="1" fill="#8F563B" />
<rect x="14" y="39" width="1" height="1" fill="#8F563B" />
<rect x="15" y="39" width="1" height="1" fill="#8F563B" />
<rect x="16" y="39" width="1" height="1" fill="#8F563B" />
<rect x="9" y="40" width="1" height="1" fill="#663931" />
<rect x="10" y="40" width="1" height="1" fill="#663931" />
<rect x="11" y="40" width="1" height="1" fill="#8F563B" />
<rect x="12" y="40" width="1" height="1" fill="#8F563B" />
<rect x="13" y="40" width="1" height="1" fill="#8F563B" />
<rect x="14" y="40" width="1" height="1" fill="#8F563B" />
<rect x="15" y="40" width="1" height="1" fill="#663931" />
<rect x="16" y="40" width="1" height="1" fill="#663931" />
<rect x="9" y="41" width="1" height="1" fill="#663931" />
<rect x="10" y="41" width="1" height="1" fill="#663931" />
<rect x="11" y="41" width="1" height="1" fill="#8F563B" />
<rect x="14" y="41" width="1" height="1" fill="#8F563B" />
<rect x="15" y="41" width="1" height="1" fill="#663931" />
<rect x="16" y="41" width="1" height="1" fill="#663931" />
<rect x="9" y="42" width="1" height="1" fill="#663931" />
<rect x="10" y="42" width="1" height="1" fill="#663931" />
<rect x="11" y="42" width="1" height="1" fill="#8F563B" />
<rect x="14" y="42" width="1" height="1" fill="#8F563B" />
<rect x="15" y="42" width="1" height="1" fill="#663931" />
<rect x="16" y="42" width="1" height="1" fill="#663931" />
<rect x="9" y="43" width="1" height="1" fill="#663931" />
<rect x="10" y="43" width="1" height="1" fill="#663931" />
<rect x="11" y="43" width="1" height="1" fill="#8F563B" />
<rect x="14" y="43" width="1" height="1" fill="#8F563B" />
<rect x="15" y="43" width="1" height="1" fill="#663931" />
<rect x="16" y="43" width="1" height="1" fill="#663931" />
<rect x="9" y="44" width="1" height="1" fill="#8F563B" />
<rect x="10" y="44" width="1" height="1" fill="#8F563B" />
<rect x="11" y="44" width="1" height="1" fill="#8F563B" />
<rect x="14" y="44" width="1" height="1" fill="#8F563B" />
<rect x="15" y="44" width="1" height="1" fill="#8F563B" />
<rect x="16" y="44" width="1" height="1" fill="#8F563B" />
<rect x="9" y="45" width="1" height="1" fill="#8F563B" />
<rect x="10" y="45" width="1" height="1" fill="#8F563B" />
<rect x="11" y="45" width="1" height="1" fill="#8F563B" />
<rect x="14" y="45" width="1" height="1" fill="#8F563B" />
<rect x="15" y="45" width="1" height="1" fill="#8F563B" />
<rect x="16" y="45" width="1" height="1" fill="#8F563B" />
<rect x="9" y="46" width="1" height="1" fill="#8F563B" />
<rect x="10" y="46" width="1" height="1" fill="#8F563B" />
<rect x="11" y="46" width="1" height="1" fill="#8F563B" />
<rect x="14" y="46" width="1" height="1" fill="#8F563B" />
<rect x="15" y="46" width="1" height="1" fill="#8F563B" />
<rect x="16" y="46" width="1" height="1" fill="#8F563B" />
<rect x="9" y="47" width="1" height="1" fill="#8F563B" />
<rect x="10" y="47" width="1" height="1" fill="#8F563B" />
<rect x="11" y="47" width="1" height="1" fill="#8F563B" />
<rect x="14" y="47" width="1" height="1" fill="#8F563B" />
<rect x="15" y="47" width="1" height="1" fill="#8F563B" />
<rect x="16" y="47" width="1" height="1" fill="#8F563B" />
</svg>