<?xml version="1.0" encoding="UTF-8" ?>
<svg version="1.1" width="26" height="60" xmlns="http://www.w3.org/2000/svg" shape-rendering="crispEdges">
<rect x="6" y="25" width="1" height="1" fill="#4B692F" />
<rect x="7" y="25" width="1" height="1" fill="#4B692F" />
<rect x="8" y="25" width="1" height="1" fill="#4B692F" />
<rect x="9" y="25" width="1" height="1" fill="#4B692F" />
<rect x="10" y="25" width="1" height="1" fill="#4B692F" />
<rect x="15" y="25" width="1" height="1" fill="#4B692F" />
<rect x="16" y="25" width="1" height="1" fill="#4B692F" />
<rect x="17" y="25" width="1" height="1" fill="#4B692F" />
<rect x="18" y="25" width="1" height="1" fill="#4B692F" />
<rect x="19" y="25" width="1" height="1" fill="#4B692F" />
<rect x="5" y="26" width="1" height="1" fill="#4B692F" />
<rect x="6" y="26" width="1" height="1" fill="#4B692F" />
<rect x="7" y="26" width="1" height="1" fill="#4B692F" />
<rect x="8" y="26" width="1" height="1" fill="#4B692F" />
<rect x="9" y="26" width="1" height="1" fill="#4B692F" />
<rect x="10" y="26" width="1" height="1" fill="#4B692F" />
<rect x="11" y="26" width="1" height="1" fill="#4B692F" />
<rect x="14" y="26" width="1" height="1" fill="#4B692F" />
<rect x="15" y="26" width="1" height="1" fill="#4B692F" />
<rect x="16" y="26" width="1" height="1" fill="#4B692F" />
<rect x="17" y="26" width="1" height="1" fill="#4B692F" />
<rect x="18" y="26" width="1" height="1" fill="#4B692F" />
<rect x="19" y="26" width="1" height="1" fill="#4B692F" />
<rect x="20" y="26" width="1" height="1" fill="#4B692F" />
<rect x="5" y="27" width="1" height="1" fill="#4B692F" />
<rect x="6" y="27" width="1" height="1" fill="#4B692F" />
<rect x="7" y="27" width="1" height="1" fill="#4B692F" />
<rect x="8" y="27" width="1" height="1" fill="#4B692F" />
<rect x="9" y="27" width="1" height="1" fill="#4B692F" />
<rect x="10" y="27" width="1" height="1" fill="#4B692F" />
<rect x="11" y="27" width="1" height="1" fill="#4B692F" />
<rect x="12" y="27" width="1" height="1" fill="#4B692F" />
<rect x="13" y="27" width="1" height="1" fill="#4B692F" />
<rect x="14" y="27" width="1" height="1" fill="#4B692F" />
<rect x="15" y="27" width="1" height="1" fill="#4B692F" />
<rect x="16" y="27" width="1" height="1" fill="#4B692F" />
<rect x="17" y="27" width="1" height="1" fill="#4B692F" />
<rect x="18" y="27" width="1" height="1" fill="#4B692F" />
<rect x="19" y="27" width="1" height="1" fill="#4B692F" />
<rect x="20" y="27" width="1" height="1" fill="#4B692F" />
<rect x="5" y="28" width="1" height="1" fill="#4B692F" />
<rect x="6" y="28" width="1" height="1" fill="#4B692F" />
<rect x="7" y="28" width="1" height="1" fill="#4B692F" />
<rect x="8" y="28" width="1" height="1" fill="#4B692F" />
<rect x="9" y="28" width="1" height="1" fill="#4B692F" />
<rect x="10" y="28" width="1" height="1" fill="#4B692F" />
<rect x="11" y="28" width="1" height="1" fill="#4B692F" />
<rect x="12" y="28" width="1" height="1" fill="#4B692F" />
<rect x="13" y="28" width="1" height="1" fill="#4B692F" />
<rect x="14" y="28" width="1" height="1" fill="#4B692F" />
<rect x="15" y="28" width="1" height="1" fill="#4B692F" />
<rect x="16" y="28" width="1" height="1" fill="#4B692F" />
<rect x="17" y="28" width="1" height="1" fill="#4B692F" />
<rect x="18" y="28" width="1" height="1" fill="#4B692F" />
<rect x="19" y="28" width="1" height="1" fill="#4B692F" />
<rect x="20" y="28" width="1" height="1" fill="#4B692F" />
<rect x="5" y="29" width="1" height="1" fill="#4B692F" />
<rect x="6" y="29" width="1" height="1" fill="#4B692F" />
<rect x="7" y="29" width="1" height="1" fill="#4B692F" />
<rect x="9" y="29" width="1" height="1" fill="#4B692F" />
<rect x="10" y="29" width="1" height="1" fill="#4B692F" />
<rect x="11" y="29" width="1" height="1" fill="#4B692F" />
<rect x="12" y="29" width="1" height="1" fill="#4B692F" />
<rect x="13" y="29" width="1" height="1" fill="#4B692F" />
<rect x="14" y="29" width="1" height="1" fill="#4B692F" />
<rect x="15" y="29" width="1" height="1" fill="#4B692F" />
<rect x="16" y="29" width="1" height="1" fill="#4B692F" />
<rect x="18" y="29" width="1" height="1" fill="#4B692F" />
<rect x="19" y="29" width="1" height="1" fill="#4B692F" />
<rect x="20" y="29" width="1" height="1" fill="#4B692F" />
<rect x="5" y="30" width="1" height="1" fill="#4B692F" />
<rect x="6" y="30" width="1" height="1" fill="#4B692F" />
<rect x="7" y="30" width="1" height="1" fill="#4B692F" />
<rect x="9" y="30" width="1" height="1" fill="#4B692F" />
<rect x="10" y="30" width="1" height="1" fill="#4B692F" />
<rect x="11" y="30" width="1" height="1" fill="#4B692F" />
<rect x="12" y="30" width="1" height="1" fill="#4B692F" />
<rect x="13" y="30" width="1" height="1" fill="#4B692F" />
<rect x="14" y="30" width="1" height="1" fill="#4B692F" />
<rect x="15" y="30" width="1" height="1" fill="#4B692F" />
<rect x="16" y="30" width="1" height="1" fill="#4B692F" />
<rect x="18" y="30" width="1" height="1" fill="#4B692F" />
<rect x="19" y="30" width="1" height="1" fill="#4B692F" />
<rect x="20" y="30" width="1" height="1" fill="#4B692F" />
<rect x="9" y="31" width="1" height="1" fill="#4B692F" />
<rect x="10" y="31" width="1" height="1" fill="#4B692F" />
<rect x="11" y="31" width="1" height="1" fill="#4B692F" />
<rect x="12" y="31" width="1" height="1" fill="#4B692F" />
<rect x="13" y="31" width="1" height="1" fill="#4B692F" />
<rect x="14" y="31" width="1" height="1" fill="#4B692F" />
<rect x="15" y="31" width="1" height="1" fill="#4B692F" />
<rect x="16" y="31" width="1" height="1" fill="#4B692F" />
<rect x="9" y="32" width="1" height="1" fill="#4B692F" />
<rect x="10" y="32" width="1" height="1" fill="#4B692F" />
<rect x="11" y="32" width="1" height="1" fill="#4B692F" />
<rect x="12" y="32" width="1" height="1" fill="#4B692F" />
<rect x="13" y="32" width="1" height="1" fill="#4B692F" />
<rect x="14" y="32" width="1" height="1" fill="#4B692F" />
<rect x="15" y="32" width="1" height="1" fill="#4B692F" />
<rect x="16" y="32" width="1" height="1" fill="#4B692F" />
<rect x="9" y="33" width="1" height="1" fill="#4B692F" />
<rect x="10" y="33" width="1" height="1" fill="#4B692F" />
<rect x="11" y="33" width="1" height="1" fill="#4B692F" />
<rect x="12" y="33" width="1" height="1" fill="#4B692F" />
<rect x="13" y="33" width="1" height="1" fill="#4B692F" />
<rect x="14" y="33" width="1" height="1" fill="#4B692F" />
<rect x="15" y="33" width="1" height="1" fill="#4B692F" />
<rect x="16" y="33" width="1" height="1" fill="#4B692F" />
<rect x="9" y="34" width="1" height="1" fill="#4B692F" />
<rect x="10" y="34" width="1" height="1" fill="#4B692F" />
<rect x="11" y="34" width="1" height="1" fill="#4B692F" />
<rect x="12" y="34" width="1" height="1" fill="#4B692F" />
<rect x="13" y="34" width="1" height="1" fill="#4B692F" />
<rect x="14" y="34" width="1" height="1" fill="#4B692F" />
<rect x="15" y="34" width="1" height="1" fill="#4B692F" />
<rect x="16" y="34" width="1" height="1" fill="#4B692F" />
<rect x="9" y="35" width="1" height="1" fill="#4B692F" />
<rect x="10" y="35" width="1" height="1" fill="#4B692F" />
<rect x="11" y="35" width="1" height="1" fill="#4B692F" />
<rect x="12" y="35" width="1" height="1" fill="#4B692F" />
<rect x="13" y="35" width="1" height="1" fill="#4B692F" />
<rect x="14" y="35" width="1" height="1" fill="#4B692F" />
<rect x="15" y="35" width="1" height="1" fill="#4B692F" />
<rect x="16" y="35" width="1" height="1" fill="#4B692F" />
<rect x="9" y="36" width="1" height="1" fill="#4B692F" />
<rect x="10" y="36" width="1" height="1" fill="#4B692F" />
<rect x="11" y="36" width="1" height="1" fill="#4B692F" />
<rect x="12" y="36" width="1" height="1" fill="#4B692F" />
<rect x="13" y="36" width="1" height="1" fill="#4B692F" />
<rect x="14" y="36" width="1" height="1" fill="#4B692F" />
<rect x="15" y="36" width="1" height="1" fill="#4B692F" />
<rect x="16" y="36" width="1" height="1" fill="#4B692F" />
<rect x="9" y="37" width="1" height="1" fill="#4B692F" />
<rect x="10" y="37" width="1" height="1" fill="#4B692F" />
<rect x="11" y="37" width="1" height="1" fill="#4B692F" />
<rect x="12" y="37" width="1" height="1" fill="#4B692F" />
<rect x="13" y="37" width="1" height="1" fill="#4B692F" />
<rect x="14" y="37" width="1" height="1" fill="#4B692F" />
<rect x="15" y="37" width="1" height="1" fill="#4B692F" />
<rect x="16" y="37" width="1" height="1" fill="#4B692F" />
</svg>