<?xml version="1.0" encoding="UTF-8" ?>
<svg version="1.1" width="26" height="60" xmlns="http://www.w3.org/2000/svg" shape-rendering="crispEdges">
<rect x="9" y="38" width="1" height="1" fill="#524B24" />
<rect x="10" y="38" width="1" height="1" fill="#524B24" />
<rect x="11" y="38" width="1" height="1" fill="#524B24" />
<rect x="12" y="38" width="1" height="1" fill="#BFB82A" />
<rect x="13" y="38" width="1" height="1" fill="#BFB82A" />
<rect x="14" y="38" width="1" height="1" fill="#524B24" />
<rect x="15" y="38" width="1" height="1" fill="#524B24" />
<rect x="16" y="38" width="1" height="1" fill="#524B24" />
<rect x="9" y="39" width="1" height="1" fill="#1560BD" />
<rect x="10" y="39" width="1" height="1" fill="#1560BD" />
<rect x="11" y="39" width="1" height="1" fill="#1560BD" />
<rect x="12" y="39" width="1" height="1" fill="#1560BD" />
<rect x="13" y="39" width="1" height="1" fill="#1560BD" />
<rect x="14" y="39" width="1" height="1" fill="#1560BD" />
<rect x="15" y="39" width="1" height="1" fill="#1560BD" />
<rect x="16" y="39" width="1" height="1" fill="#1560BD" />
<rect x="9" y="40" width="1" height="1" fill="#BFB82A" />
<rect x="10" y="40" width="1" height="1" fill="#0658BD" />
<rect x="11" y="40" width="1" height="1" fill="#1560BD" />
<rect x="12" y="40" width="1" height="1" fill="#1560BD" />
<rect x="13" y="40" width="1" height="1" fill="#1560BD" />
<rect x="14" y="40" width="1" height="1" fill="#1560BD" />
<rect x="15" y="40" width="1" height="1" fill="#0658BD" />
<rect x="16" y="40" width="1" height="1" fill="#BFB82A" />
<rect x="9" y="41" width="1" height="1" fill="#0658BD" />
<rect x="10" y="41" width="1" height="1" fill="#0658BD" />
<rect x="11" y="41" width="1" height="1" fill="#1560BD" />
<rect x="14" y="41" width="1" height="1" fill="#1560BD" />
<rect x="15" y="41" width="1" height="1" fill="#0658BD" />
<rect x="16" y="41" width="1" height="1" fill="#0658BD" />
<rect x="9" y="42" width="1" height="1" fill="#0658BD" />
<rect x="10" y="42" width="1" height="1" fill="#0658BD" />
<rect x="11" y="42" width="1" height="1" fill="#1560BD" />
<rect x="14" y="42" width="1" height="1" fill="#1560BD" />
<rect x="15" y="42" width="1" height="1" fill="#0658BD" />
<rect x="16" y="42" width="1" height="1" fill="#0658BD" />
<rect x="9" y="43" width="1" height="1" fill="#1560BD" />
<rect x="10" y="43" width="1" height="1" fill="#1560BD" />
<rect x="11" y="43" width="1" height="1" fill="#1560BD" />
<rect x="14" y="43" width="1" height="1" fill="#1560BD" />
<rect x="15" y="43" width="1" height="1" fill="#1560BD" />
<rect x="16" y="43" width="1" height="1" fill="#1560BD" />
<rect x="9" y="44" width="1" height="1" fill="#1560BD" />
<rect x="10" y="44" width="1" height="1" fill="#1560BD" />
<rect x="11" y="44" width="1" height="1" fill="#1560BD" />
<rect x="14" y="44" width="1" height="1" fill="#1560BD" />
<rect x="15" y="44" width="1" height="1" fill="#1560BD" />
<rect x="16" y="44" width="1" height="1" fill="#1560BD" />
<rect x="9" y="45" width="1" height="1" fill="#1560BD" />
<rect x="10" y="45" width="1" height="1" fill="#1560BD" />
<rect x="11" y="45" width="1" height="1" fill="#1560BD" />
<rect x="14" y="45" width="1" height="1" fill="#1560BD" />
<rect x="15" y="45" width="1" height="1" fill="#1560BD" />
<rect x="16" y="45" width="1" height="1" fill="#1560BD" />
<rect x="9" y="46" width="1" height="1" fill="#1560BD" />
<rect x="10" y="46" width="1" height="1" fill="#1560BD" />
<rect x="11" y="46" width="1" height="1" fill="#1560BD" />
<rect x="14" y="46" width="1" height="1" fill="#1560BD" />
<rect x="15" y="46" width="1" height="1" fill="#1560BD" />
<rect x="16" y="46" width="1" height="1" fill="#1560BD" />
<rect x="9" y="47" width="1" height="1" fill="#1560BD" />
<rect x="10" y="47" width="1" height="1" fill="#1560BD" />
<rect x="11" y="47" width="1" height="1" fill="#1560BD" />
<rect x="14" y="47" width="1" height="1" fill="#1560BD" />
<rect x="15" y="47" width="1" height="1" fill="#1560BD" />
<rect x="16" y="47" width="1" height="1" fill="#1560BD" />
<rect x="9" y="48" width="1" height="1" fill="#1560BD" />
<rect x="10" y="48" width="1" height="1" fill="#1560BD" />
<rect x="11" y="48" width="1" height="1" fill="#1560BD" />
<rect x="14" y="48" width="1" height="1" fill="#1560BD" />
<rect x="15" y="48" width="1" height="1" fill="#1560BD" />
<rect x="16" y="48" width="1" height="1" fill="#1560BD" />
<rect x="9" y="49" width="1" height="1" fill="#1560BD" />
<rect x="10" y="49" width="1" height="1" fill="#1560BD" />
<rect x="11" y="49" width="1" height="1" fill="#1560BD" />
<rect x="14" y="49" width="1" height="1" fill="#1560BD" />
<rect x="15" y="49" width="1" height="1" fill="#1560BD" />
<rect x="16" y="49" width="1" height="1" fill="#1560BD" />
<rect x="9" y="50" width="1" height="1" fill="#1560BD" />
<rect x="10" y="50" width="1" height="1" fill="#1560BD" />
<rect x="11" y="50" width="1" height="1" fill="#1560BD" />
<rect x="14" y="50" width="1" height="1" fill="#1560BD" />
<rect x="15" y="50" width="1" height="1" fill="#1560BD" />
<rect x="16" y="50" width="1" height="1" fill="#1560BD" />
<rect x="9" y="51" width="1" height="1" fill="#1560BD" />
<rect x="10" y="51" width="1" height="1" fill="#1560BD" />
<rect x="11" y="51" width="1" height="1" fill="#1560BD" />
<rect x="14" y="51" width="1" height="1" fill="#1560BD" />
<rect x="15" y="51" width="1" height="1" fill="#1560BD" />
<rect x="16" y="51" width="1" height="1" fill="#1560BD" />
<rect x="9" y="52" width="1" height="1" fill="#1560BD" />
<rect x="10" y="52" width="1" height="1" fill="#1560BD" />
<rect x="11" y="52" width="1" height="1" fill="#1560BD" />
<rect x="14" y="52" width="1" height="1" fill="#1560BD" />
<rect x="15" y="52" width="1" height="1" fill="#1560BD" />
<rect x="16" y="52" width="1" height="1" fill="#1560BD" />
<rect x="9" y="53" width="1" height="1" fill="#1560BD" />
<rect x="10" y="53" width="1" height="1" fill="#1560BD" />
<rect x="11" y="53" width="1" height="1" fill="#1560BD" />
<rect x="14" y="53" width="1" height="1" fill="#1560BD" />
<rect x="15" y="53" width="1" height="1" fill="#1560BD" />
<rect x="16" y="53" width="1" height="1" fill="#1560BD" />
<rect x="9" y="54" width="1" height="1" fill="#1560BD" />
<rect x="10" y="54" width="1" height="1" fill="#1560BD" />
<rect x="11" y="54" width="1" height="1" fill="#1560BD" />
<rect x="14" y="54" width="1" height="1" fill="#1560BD" />
<rect x="15" y="54" width="1" height="1" fill="#1560BD" />
<rect x="16" y="54" width="1" height="1" fill="#1560BD" />
</svg>