<?xml version="1.0" encoding="UTF-8" ?>
<svg version="1.1" width="26" height="60" xmlns="http://www.w3.org/2000/svg" shape-rendering="crispEdges">
<rect x="9" y="12" width="1" height="1" fill="#663931" />
<rect x="10" y="12" width="1" height="1" fill="#663931" />
<rect x="11" y="12" width="1" height="1" fill="#663931" />
<rect x="12" y="12" width="1" height="1" fill="#663931" />
<rect x="13" y="12" width="1" height="1" fill="#663931" />
<rect x="14" y="12" width="1" height="1" fill="#663931" />
<rect x="15" y="12" width="1" height="1" fill="#663931" />
<rect x="16" y="12" width="1" height="1" fill="#663931" />
<rect x="8" y="13" width="1" height="1" fill="#663931" />
<rect x="9" y="13" width="1" height="1" fill="#663931" />
<rect x="10" y="13" width="1" height="1" fill="#663931" />
<rect x="11" y="13" width="1" height="1" fill="#663931" />
<rect x="12" y="13" width="1" height="1" fill="#663931" />
<rect x="13" y="13" width="1" height="1" fill="#663931" />
<rect x="14" y="13" width="1" height="1" fill="#663931" />
<rect x="15" y="13" width="1" height="1" fill="#663931" />
<rect x="16" y="13" width="1" height="1" fill="#663931" />
<rect x="17" y="13" width="1" height="1" fill="#663931" />
<rect x="7" y="14" width="1" height="1" fill="#663931" />
<rect x="8" y="14" width="1" height="1" fill="#663931" />
<rect x="9" y="14" width="1" height="1" fill="#663931" />
<rect x="10" y="14" width="1" height="1" fill="#663931" />
<rect x="15" y="14" width="1" height="1" fill="#663931" />
<rect x="16" y="14" width="1" height="1" fill="#663931" />
<rect x="17" y="14" width="1" height="1" fill="#663931" />
<rect x="18" y="14" width="1" height="1" fill="#663931" />
<rect x="7" y="15" width="1" height="1" fill="#663931" />
<rect x="8" y="15" width="1" height="1" fill="#663931" />
<rect x="9" y="15" width="1" height="1" fill="#663931" />
<rect x="16" y="15" width="1" height="1" fill="#663931" />
<rect x="17" y="15" width="1" height="1" fill="#663931" />
<rect x="18" y="15" width="1" height="1" fill="#663931" />
<rect x="7" y="16" width="1" height="1" fill="#663931" />
<rect x="8" y="16" width="1" height="1" fill="#663931" />
<rect x="17" y="16" width="1" height="1" fill="#663931" />
<rect x="18" y="16" width="1" height="1" fill="#663931" />
<rect x="7" y="17" width="1" height="1" fill="#663931" />
<rect x="18" y="17" width="1" height="1" fill="#663931" />
<rect x="7" y="18" width="1" height="1" fill="#663931" />
<rect x="18" y="18" width="1" height="1" fill="#663931" />
<rect x="7" y="19" width="1" height="1" fill="#663931" />
<rect x="18" y="19" width="1" height="1" fill="#663931" />
<rect x="7" y="20" width="1" height="1" fill="#663931" />
<rect x="18" y="20" width="1" height="1" fill="#663931" />
<rect x="7" y="21" width="1" height="1" fill="#663931" />
<rect x="18" y="21" width="1" height="1" fill="#663931" />
<rect x="7" y="22" width="1" height="1" fill="#663931" />
<rect x="8" y="22" width="1" height="1" fill="#663931" />
<rect x="17" y="22" width="1" height="1" fill="#663931" />
<rect x="18" y="22" width="1" height="1" fill="#663931" />
<rect x="7" y="23" width="1" height="1" fill="#663931" />
<rect x="8" y="23" width="1" height="1" fill="#663931" />
<rect x="9" y="23" width="1" height="1" fill="#663931" />
<rect x="16" y="23" width="1" height="1" fill="#663931" />
<rect x="17" y="23" width="1" height="1" fill="#663931" />
<rect x="18" y="23" width="1" height="1" fill="#663931" />
<rect x="7" y="24" width="1" height="1" fill="#663931" />
<rect x="8" y="24" width="1" height="1" fill="#663931" />
<rect x="9" y="24" width="1" height="1" fill="#663931" />
<rect x="10" y="24" width="1" height="1" fill="#663931" />
<rect x="15" y="24" width="1" height="1" fill="#663931" />
<rect x="16" y="24" width="1" height="1" fill="#663931" />
<rect x="17" y="24" width="1" height="1" fill="#663931" />
<rect x="18" y="24" width="1" height="1" fill="#663931" />
<rect x="7" y="25" width="1" height="1" fill="#663931" />
<rect x="8" y="25" width="1" height="1" fill="#663931" />
<rect x="9" y="25" width="1" height="1" fill="#663931" />
<rect x="16" y="25" width="1" height="1" fill="#663931" />
<rect x="17" y="25" width="1" height="1" fill="#663931" />
<rect x="18" y="25" width="1" height="1" fill="#663931" />
<rect x="7" y="26" width="1" height="1" fill="#663931" />
<rect x="8" y="26" width="1" height="1" fill="#663931" />
<rect x="9" y="26" width="1" height="1" fill="#663931" />
<rect x="16" y="26" width="1" height="1" fill="#663931" />
<rect x="17" y="26" width="1" height="1" fill="#663931" />
<rect x="18" y="26" width="1" height="1" fill="#663931" />
<rect x="7" y="27" width="1" height="1" fill="#663931" />
<rect x="8" y="27" width="1" height="1" fill="#663931" />
<rect x="9" y="27" width="1" height="1" fill="#663931" />
<rect x="16" y="27" width="1" height="1" fill="#663931" />
<rect x="17" y="27" width="1" height="1" fill="#663931" />
<rect x="18" y="27" width="1" height="1" fill="#663931" />
<rect x="7" y="28" width="1" height="1" fill="#663931" />
<rect x="8" y="28" width="1" height="1" fill="#663931" />
<rect x="9" y="28" width="1" height="1" fill="#663931" />
<rect x="16" y="28" width="1" height="1" fill="#663931" />
<rect x="17" y="28" width="1" height="1" fill="#663931" />
<rect x="18" y="28" width="1" height="1" fill="#663931" />
<rect x="7" y="29" width="1" height="1" fill="#663931" />
<rect x="8" y="29" width="1" height="1" fill="#663931" />
<rect x="17" y="29" width="1" height="1" fill="#663931" />
<rect x="18" y="29" width="1" height="1" fill="#663931" />
<rect x="7" y="30" width="1" height="1" fill="#663931" />
</svg>