<?xml version="1.0" encoding="UTF-8" ?>
<svg version="1.1" width="26" height="60" xmlns="http://www.w3.org/2000/svg" shape-rendering="crispEdges">
<rect x="9" y="55" width="1" height="1" fill="#FFFFFF" />
<rect x="10" y="55" width="1" height="1" fill="#FFFFFF" />
<rect x="11" y="55" width="1" height="1" fill="#FFFFFF" />
<rect x="14" y="55" width="1" height="1" fill="#FFFFFF" />
<rect x="15" y="55" width="1" height="1" fill="#FFFFFF" />
<rect x="16" y="55" width="1" height="1" fill="#FFFFFF" />
<rect x="7" y="56" width="1" height="1" fill="#000000" />
<rect x="8" y="56" width="1" height="1" fill="#000000" />
<rect x="9" y="56" width="1" height="1" fill="#000000" />
<rect x="10" y="56" width="1" height="1" fill="#000000" />
<rect x="11" y="56" width="1" height="1" fill="#000000" />
<rect x="14" y="56" width="1" height="1" fill="#000000" />
<rect x="15" y="56" width="1" height="1" fill="#000000" />
<rect x="16" y="56" width="1" height="1" fill="#000000" />
<rect x="17" y="56" width="1" height="1" fill="#000000" />
<rect x="18" y="56" width="1" height="1" fill="#000000" />
<rect x="7" y="57" width="1" height="1" fill="#FFFFFF" />
<rect x="8" y="57" width="1" height="1" fill="#000000" />
<rect x="9" y="57" width="1" height="1" fill="#000000" />
<rect x="10" y="57" width="1" height="1" fill="#000000" />
<rect x="11" y="57" width="1" height="1" fill="#000000" />
<rect x="14" y="57" width="1" height="1" fill="#000000" />
<rect x="15" y="57" width="1" height="1" fill="#000000" />
<rect x="16" y="57" width="1" height="1" fill="#000000" />
<rect x="17" y="57" width="1" height="1" fill="#000000" />
<rect x="18" y="57" width="1" height="1" fill="#FFFFFF" />
</svg>